<?xml version="1.0" encoding="UTF-8"?>
<svg id="Calque_1" xmlns="http://www.w3.org/2000/svg" version="1.1" viewBox="0 0 1024 1024">
  <!-- Generator: Adobe Illustrator 30.1.0, SVG Export Plug-In . SVG Version: 2.1.1 Build 136)  -->
  <defs>
    <style>
      .st0 {
        fill: #0a0a0a;
      }
    </style>
  </defs>
  <path class="st0" d="M259.96,590.74c.02,7.59,5.91,10.15,11.81,10.06l161-2.48c-14.76,28.45-28.36,54.06-44.51,79.88-17.47,27.93-46.71,42.05-79.55,39.8-106.27,7.26-177.22-87.69-171.71-188.59,2.13-38.97,16.34-74.65,45.65-101.85,31.72-29.44,73.82-47.89,118.62-47.99l297.1-.63-34.87,63.18c-18.93,34.3-55.7,39.4-92.4,39.42l-199.4.08c-2.93,0-9.75,3.63-11.94,5.94l.21,103.19h-.01Z"/>
  <path class="st0" d="M764.04,433.26c-.02-7.59-5.91-10.15-11.81-10.06l-161,2.48c14.76-28.45,28.36-54.06,44.51-79.88,17.47-27.93,46.71-42.05,79.55-39.8,106.27-7.26,177.22,87.69,171.71,188.59-2.13,38.97-16.34,74.65-45.65,101.85-31.72,29.44-73.82,47.89-118.62,47.99l-297.1.63,34.87-63.18c18.93-34.3,55.7-39.4,92.4-39.42l199.4-.08c2.93,0,9.75-3.63,11.94-5.94l-.21-103.19h.01Z"/>
</svg>